<svg width="53" height="40" viewBox="0 0 53 40" fill="none" xmlns="http://www.w3.org/2000/svg">
<path d="M23.6814 17.535H22.5361V31.7593H23.6814V17.535Z" fill="white"/>
<path d="M9.3941 0V2.46744H2.3536V0H1.20898V5.99728H10.5393V0H9.3941ZM9.3941 4.94043H2.3536V3.52429H9.3941V4.94043Z" fill="white"/>
<path d="M11.2183 8.50363V7.44678H0.530273V8.50363H5.2803V9.88397H0.954549V10.9834H9.54288V14.8503H10.6881V9.88397H6.42554V8.50363H11.2183Z" fill="white"/>
<path d="M24.275 13.7514H13.5869V14.8502H24.275V13.7514Z" fill="white"/>
<path d="M16.959 9.28638C17.4254 8.89191 17.8286 8.45176 18.168 7.96531C18.5074 7.47886 18.762 6.96155 18.9317 6.41213C19.1014 6.96155 19.356 7.47948 19.6954 7.96531C20.0348 8.45114 20.4374 8.89191 20.9044 9.28638C21.3708 9.68085 21.8868 10.0228 22.4523 10.3111C23.0178 10.6 23.6186 10.8291 24.2547 10.9982V9.85679C23.5052 9.68764 22.8369 9.40985 22.251 9.02217C21.6644 8.63511 21.1658 8.17335 20.7558 7.63751C20.3458 7.10229 20.0348 6.52078 19.823 5.89358C19.6112 5.26699 19.5046 4.62189 19.5046 3.95951V0H18.3594V3.96012C18.3594 4.62251 18.2535 5.267 18.041 5.89419C17.8292 6.52139 17.5177 7.10229 17.1083 7.63813C16.6982 8.17397 16.1996 8.63511 15.6131 9.02279C15.0265 9.41046 14.3582 9.68826 13.6094 9.8574V10.9988C14.2455 10.8297 14.8463 10.6007 15.4118 10.3118C15.9773 10.0228 16.4932 9.68147 16.9596 9.287L16.959 9.28638Z" fill="white"/>
<path d="M7.59184 17.535H0.211914V18.5918H7.59184V17.535Z" fill="white"/>
<path d="M10.6452 17.4924H9.5V30.8902H10.6452V17.4924Z" fill="white"/>
<path d="M1.97238 38.9431V36.6177H10.5397V32.3483H0.827148V33.4051H9.39443V35.5614H0.827148V40H10.7942V38.9431H1.97238Z" fill="white"/>
<path d="M5.81784 29.3055L5.95906 19.395H4.83489L4.71411 29.3055H4.70791H2.62927H2.62184L2.48124 19.395H1.35706L1.5181 29.3055H0V30.3624H7.95223V29.3055H5.81784Z" fill="white"/>
<path d="M14.7956 30.2044V23.0514H19.9061V17.577H13.6504V18.6339H18.7609V22.0366H13.6504V31.2612H14.7956H20.7547V30.2044H14.7956Z" fill="white"/>
<path d="M14.2656 34.5891H22.4297V40H23.5749V33.4897H14.2656V34.5891Z" fill="white"/>
<path d="M38.8105 0V23.7527L39.5897 27.4251L40.3683 23.7527V0H38.8105Z" fill="white"/>
<path d="M52.2066 26.6486H43.2745L39.5898 27.4251L43.2745 28.2011H52.2066V26.6486Z" fill="white"/>
<path d="M40.3683 40V31.0976L39.5897 27.4252L38.8105 31.0976V40H40.3683Z" fill="white"/>
<path d="M26.9727 28.2011H35.9047L39.5894 27.4251L35.9047 26.6486H26.9727V28.2011Z" fill="white"/>
<path d="M30.1172 19.082L36.433 25.3769L39.5894 27.4251L37.5349 24.2793L31.2184 17.9844L30.1172 19.082Z" fill="white"/>
<path d="M47.9602 17.9844L41.6443 24.2793L39.5898 27.4251L42.7462 25.3769L49.062 19.082L47.9602 17.9844Z" fill="white"/>
<path d="M49.062 35.7677L42.7462 29.4728L39.5898 27.4252L41.6443 30.5704L47.9602 36.8659L49.062 35.7677Z" fill="white"/>
<path d="M31.2184 36.8659L37.5349 30.5704L39.5894 27.4252L36.433 29.4728L30.1172 35.7677L31.2184 36.8659Z" fill="white"/>
</svg>
