<svg width="35" height="35" viewBox="0 0 35 35" fill="none" xmlns="http://www.w3.org/2000/svg">
<path d="M17.8648 18.7396C18.5323 18.7396 19.0734 18.1846 19.0734 17.5C19.0734 16.8154 18.5323 16.2604 17.8648 16.2604C17.1974 16.2604 16.6562 16.8154 16.6562 17.5C16.6562 18.1846 17.1974 18.7396 17.8648 18.7396Z" stroke="white" stroke-linecap="round" stroke-linejoin="round"/>
<path d="M17.8648 24.0808C18.5323 24.0808 19.0734 23.5258 19.0734 22.8412C19.0734 22.1566 18.5323 21.6016 17.8648 21.6016C17.1974 21.6016 16.6562 22.1566 16.6562 22.8412C16.6562 23.5258 17.1974 24.0808 17.8648 24.0808Z" stroke="white" stroke-linecap="round" stroke-linejoin="round"/>
<path d="M19.1992 2.91669H16.5332V11.1198H19.1992V2.91669Z" stroke="white" stroke-linecap="round" stroke-linejoin="round"/>
<path d="M8.08984 13.599H27.6406C30.0934 13.599 32.084 15.6407 32.084 18.1563V32.0834H3.64648V18.1563C3.64648 15.6407 5.63711 13.599 8.08984 13.599V13.599Z" stroke="white" stroke-linecap="round" stroke-linejoin="round"/>
</svg>
